<svg xmlns="http://www.w3.org/2000/svg" width="425.707" height="470.43" viewBox="0 0 425.707 470.43" id="plano_estadio">
			<g id="Plano_partido" data-name="Plano partido" transform="translate(-112 -127.004)">
			  <path id="baseEstadio st0" d="M21243.428,18451.432c-16.67,0-29.762-.441-37.867-1.262-7.82-.77-16.2-1.707-26.377-2.969a176.471,176.471,0,0,1-31.615-6.791,139.594,139.594,0,0,1-25.67-11.043,123.223,123.223,0,0,1-20.383-14.25,121.63,121.63,0,0,1-15.727-16.437h.01a138.225,138.225,0,0,1-13.129-20.523h-.1a156.977,156.977,0,0,1-8.773-20.352h-.135a206.721,206.721,0,0,1-8.9-37.154c-1.795-11.566-3.25-27-4.221-44.615h-.021c-.937-17.145-1.443-36.277-1.508-56.875-.064-22.572.414-46.328,1.422-70.613.426-10.111.857-17.527,1.359-23.32h.049c1.26-15.879,3.158-29.029,5.8-40.2a126.5,126.5,0,0,1,6.371-20.043,97.7,97.7,0,0,1,8.58-16.152c6.289-9.566,14.131-18.039,24.744-28.607a101.948,101.948,0,0,1,12.088-10.338,113.015,113.015,0,0,1,13-8.176,138.122,138.122,0,0,1,27.266-10.951c17.273-4.986,33.965-6.8,49.432-8.025,19.047-1.5,44.717-1.73,58.32-1.73,4.926,0,8.3.027,8.58.033h.021c.1,0,10.51.027,24.711.619,13.064.533,32.1,1.676,48.57,4.043a116.6,116.6,0,0,1,33.2,10.084,128.535,128.535,0,0,1,27.363,17.623,139.057,139.057,0,0,1,21,21.9,124.939,124.939,0,0,1,14.115,22.916l-10.687,4.836a171.547,171.547,0,0,0-17.227-24.937,125.424,125.424,0,0,0-19.617-18.955,102.96,102.96,0,0,0-22.021-12.945,100.4,100.4,0,0,0-24.426-6.947c-13.221-1.574-26.9-2.781-40.646-3.574-13.625-.791-27.691-1.191-41.807-1.191-19.176,0-39.031.744-59.025,2.221a206.158,206.158,0,0,0-29.611,3.24,154.045,154.045,0,0,0-25.988,7.189,122.409,122.409,0,0,0-22.361,11.135,108.959,108.959,0,0,0-18.732,15.074,94.479,94.479,0,0,0-10.957,10.768,91.743,91.743,0,0,0-8.828,12.133,109.366,109.366,0,0,0-12.02,28.758c-3.158,11.555-5.211,24.932-6.279,40.885h-.043c-.021.41-.037.852-.053,1.186v.033c-.012.252-.027.512-.039.766-.037.91-.08,1.8-.117,2.506-2.75,53.588-2.7,101.225.166,145.635.5,7.459,1.111,15.436,1.779,23.072,2,22.615,5.955,41.559,12.094,57.916h.021a146.931,146.931,0,0,0,10.025,21.133,123.87,123.87,0,0,0,14.928,20.523h-.031c.313.365.717.77,1.1,1.158l.037.027a119.979,119.979,0,0,0,19.1,14.578,128.542,128.542,0,0,0,22.059,10.746,152.888,152.888,0,0,0,25.018,6.938,194.1,194.1,0,0,0,27.973,3.115c16.949,1.514,34.881,2.279,53.291,2.279,13.383,0,27.336-.4,41.482-1.2s28.873-2.027,43.736-3.623a109.9,109.9,0,0,0,17.807-4.123,108.552,108.552,0,0,0,16.795-7.033,117.756,117.756,0,0,0,15.813-9.959,136.15,136.15,0,0,0,14.848-12.9h-.033a177.562,177.562,0,0,0,17.42-20.437h-.033c2.668-3.67,5.277-7.523,7.973-11.787l10.859,5.088-.086.162c-.131.2-.26.393-.389.582-.193.291-.383.576-.57.861l-.088.125-.064.1c-1.217,1.807-2.23,3.326-3.217,4.867h-.027c-5.744,8.354-10.828,15.221-15.117,20.4h.016c-.08.1-.156.2-.236.291l-.1.131-.139.172-.33.4-.117.145c-.75.922-1.457,1.785-2.178,2.637a128.995,128.995,0,0,1-32.02,27.076,142.916,142.916,0,0,1-18.723,9.373,169.606,169.606,0,0,1-20.422,6.893c-5.67,1.525-20.125,2.965-40.7,4.059-19.246,1.023-41.393,1.611-60.756,1.611Zm192.248-14.5-11.791-12.121,14.25-14.848,13.742,11.2-16.2,15.77v.006Zm-181.852-1.1v-.01l-.082-5.5.086,0c7.67,0,15.883-.135,25.105-.416l.166,5.428c-8.473.334-16.977.506-25.271.506Zm-25.02-.42v-5.514c8.705.281,16.309.42,23.24.42l.086,5.5v.01C21244.926,18435.834,21237.3,18435.689,21228.8,18435.414Zm-29.346-1.875.254-5.082c8.035.512,17.57,1.072,27.395,1.357v5.514C21217.676,18434.988,21208.373,18434.385,21199.459,18433.539Zm81.426,1.7-.26-5.422c10.344-.4,18.3-.846,25.789-1.439l.506,5.342c-8.623.662-17.381,1.174-26.035,1.525Zm27.82-1.611-.512-5.422c4.24-.334,8.629-.68,12.977-1.105a129.152,129.152,0,0,0,14.336-1.271l.762,5.26c-9.082.992-18.357,1.844-27.562,2.545Zm-139.357-3.557,1.014-5c5.814,1.1,11.279,1.9,16.713,2.457,1.795.125,3.621.27,5.395.416l.189.016c1.9.156,3.621.3,5.357.42l-.34,5.082v.006A185.469,185.469,0,0,1,21169.348,18430.068Zm168.531.84-.68-5.336a110.961,110.961,0,0,0,21.121-5.514l2.037,4.836a111.564,111.564,0,0,1-22.479,6.02Zm-201.951-11.781,2.291-4.242a136.518,136.518,0,0,0,30.531,9.842l-1.014,5v.006A142.172,142.172,0,0,1,21135.928,18419.127Zm51.313,6.7a185.527,185.527,0,0,1-21.52-3.465,139.588,139.588,0,0,1-19.014-5.691,108.283,108.283,0,0,1-16.471-7.891,89.8,89.8,0,0,1-13.895-10.1h-.01a84.074,84.074,0,0,1-15.264-17.975c-.312-.447-.686-1-.971-1.439l-.021-.027-.049-.08c-.236-.355-.469-.7-.674-1h-.068a121.293,121.293,0,0,1-11.686-20.352h-.107a129.358,129.358,0,0,1-7.707-22.8,159.427,159.427,0,0,1-3.826-25.471c-.977-10.488-1.828-21.791-2.527-33.582h-.018c-1.3-22.986-1.838-47.314-1.59-72.328.248-24.8,1.271-50.941,3.045-77.717h-.01c.037-.867.107-1.783.166-2.564v-.012l.006-.092c.012-.162.027-.328.033-.506l0-.049c.049-.646.1-1.311.131-1.951a151.408,151.408,0,0,1,1.6-18.723,118.729,118.729,0,0,1,3.826-16.988h-.086a93.906,93.906,0,0,1,17.221-32.908,105.73,105.73,0,0,1,20.053-21.041,111.137,111.137,0,0,1,25.428-15.031,142.68,142.68,0,0,1,30.807-9.021,206.114,206.114,0,0,1,36.18-3c16.7-1.008,33.508-1.51,49.967-1.51,20.609,0,41.209.793,61.23,2.361a158.469,158.469,0,0,1,31.395,7.281,116.183,116.183,0,0,1,26.08,12.826,100.446,100.446,0,0,1,20.76,18.379,109.005,109.005,0,0,1,15.408,23.93l-10.094,4.586a126.358,126.358,0,0,0-16.428-22.754,96.234,96.234,0,0,0-19.645-16.492,89.946,89.946,0,0,0-22.852-10.234,105.3,105.3,0,0,0-26.064-3.951c-18.453-1.363-39.381-2.053-62.2-2.053-15.441,0-31.588.313-47.979.947a210.484,210.484,0,0,0-40.879,4.889,142.877,142.877,0,0,0-17.807,5.266,115.144,115.144,0,0,0-15.895,7.244,96.68,96.68,0,0,0-13.867,9.3,86.257,86.257,0,0,0-21.186,25.066,96.932,96.932,0,0,0-7.082,15.92,112.284,112.284,0,0,0-4.338,16.8,152.025,152.025,0,0,0-2.107,18.906c-.152,1.5-.232,3.072-.309,4.592l0,.043-.012.248-.006.232h.006c-1.691,24.328-2.57,49.3-2.613,74.225-.049,24.975.738,50.5,2.344,75.879.928,14.018,1.762,24.77,2.717,34.859a206.857,206.857,0,0,0,5.438,25.75,142.535,142.535,0,0,0,7.793,21.24h-.016a109.312,109.312,0,0,0,12.24,20.049h.016a81.582,81.582,0,0,0,18.211,17.016c2.178,1.449,4.2,2.7,6.188,3.811h-.027a112.782,112.782,0,0,0,31.131,11.242c12.572,2.705,26.926,4.166,43.881,4.457,19.213.414,35.533.609,51.352.609,16.088,0,32.7-.2,50.77-.609a115.581,115.581,0,0,0,29.3-4.484,103.157,103.157,0,0,0,25.557-11.355,98.89,98.89,0,0,0,12.477-9.254,111.016,111.016,0,0,0,11-11.043h-.049a109.135,109.135,0,0,0,13.658-20.437l.031-.006c.037-.08.076-.172.107-.242l.012-.016c.1-.232.156-.361.184-.42l1.578.684h-.037l9.146,4.322a157.921,157.921,0,0,1-9.879,15.943,123.1,123.1,0,0,1-18.238,20.576,104.088,104.088,0,0,1-14.963,11.125,102.482,102.482,0,0,1-16.615,8.17,111.21,111.21,0,0,1-18.227,5.217,129.016,129.016,0,0,1-19.785,2.248c-21.715,2.1-44.389,3.174-67.4,3.174C21232.146,18428.58,21209.818,18427.652,21187.24,18425.826Zm174.814-1.617-2.123-4.742a104.576,104.576,0,0,0,17.307-8.65l2.883,3.982a107.85,107.85,0,0,1-18.066,9.41v.006Zm60.645-.684-11.621-11.949,12.639-13.484,13.064,10.688-14.082,14.746v.01Zm-288.3-5.17a121.4,121.4,0,0,1-15.084-8.859,116.355,116.355,0,0,1-13.5-10.893l-.34-.35,3.9-4.064a92.763,92.763,0,0,0,27.309,20.018l-2.291,4.148v.006Zm247.078-4.58-2.879-3.9a108.237,108.237,0,0,0,17.98-14.67l3.389,3.471a128.737,128.737,0,0,1-18.49,15.1v.006Zm-124.256-.5.172-5.26.092-.006c1.359,0,2.8-.021,3.957-.037,1.211-.016,2.721-.037,4.176-.037v5.34Zm18.826-.092.344-5.508c3.477-.08,7.055-.248,10.516-.414l.242-.006h.012l0,5.854h-.139c-1.947,0-3.941.021-5.547.037-1.59.016-3.568.043-5.432.043Zm-8.818.006v-5.346h.082c1.18-.039,2.354-.061,3.492-.076l.113-.006c1.25-.021,2.473-.043,3.691-.086l-.34,5.508v.006Zm-19.17-.086.086-5.088h7.631l-.166,5.168v.006C21253.031,18413.188,21250.6,18413.188,21248.057,18413.1Zm-1.783,0-7.207-.086.082-5.082c2.375.08,4.834.08,7.211.08l-.082,5.082v.006Zm42.668-5.934h-.086c4.424-.178,8.865-.42,13.4-.68l-.082,6.359h-.166c-4.312.086-8.779.168-13.064.168Zm-58.186,5.766.168-5.26c2.316.092,4.408.168,6.531.168l-.086,5.174Zm73.027,0,.168-6.445q3.073-.17,6.117-.328c1.164-.055,2.322-.119,3.471-.178l.34,6.785-.852.021c-3.045.07-6.187.145-9.238.145Zm-79.715-.166h-.152c-1.7-.021-3.453-.043-5.205-.086l.34-5.174c.77,0,1.605,0,2.619.016.775.006,1.74.021,2.662.021,1.008,0,1.891-.016,2.689-.037l2.209.086-.172,5.244v.01C21227.387,18412.811,21225.744,18412.789,21224.068,18412.768Zm91.5-.086-.334-6.873c4.242-.273,7.982-.527,11.447-.764l.766,6.785a106.293,106.293,0,0,1-11.705.852Zm-101.947-.092c-.842,0-1.666-.021-2.4-.043-.846-.021-1.547-.033-2.27-.033l-.252-5.346c2.742.166,5.652.248,8.648.248l-.334,5.26,0,.006Zm-15.441-.588.766-5.514c2.705.26,5.508.432,8.143.594l.34,5.426v.006C21204.25,18412.428,21201.227,18412.256,21198.182,18412Zm-16.367-1.611,1.018-5.768c4.469.658,9.287,1.262,14.332,1.779l-.848,5.508v.006C21191.246,18411.5,21186.363,18410.988,21181.814,18410.391Zm147.246,1.18-.68-6.607,6.021-.426c.08-.016.156-.027.242-.043a8.71,8.71,0,0,0,1.369-.3l1.611,5.854c-2.76.582-5.643,1.1-8.564,1.525Zm-164.8-4.828,1.529-5.682a152.233,152.233,0,0,0,15.35,3.219l-1.014,5.68,0,.006A153.322,153.322,0,0,1,21164.256,18406.742Zm175.066,2.959-1.611-5.848c2.4-.529,4.689-1.127,6.785-1.773l1.611,5.762c-2.252.7-4.553,1.293-6.785,1.859v.01Zm8.4-2.367-1.611-5.766c2.5-.83,4.588-1.568,6.619-2.463l2.539,5.432c-2.312.959-4.852,1.9-7.547,2.8v.006Zm-185.076-.937a113.682,113.682,0,0,1-17.219-6.182l2.8-5.174a121.633,121.633,0,0,0,15.947,5.594l-1.531,5.762v.006Zm64.465-.588-.609.006c-.625,0-1.262.006-1.9.006a292.26,292.26,0,0,1-33.508-1.789,174.555,174.555,0,0,1-27.744-5.352h-.027a106.891,106.891,0,0,1-20.168-7.934,71.581,71.581,0,0,1-15.457-10.807c-.377-.322-.895-.857-1.348-1.326l-.1-.1v-.006l-.033-.031-.139-.146-.086-.092-.082-.08h-.074c-5.256-4.947-10.354-12.014-14.73-20.437h-.113c-.221-.393-.41-.8-.609-1.234l-.037-.08-.055-.113,0-.012-.018-.037c-.145-.318-.295-.652-.463-.986l11.021-5.686a63.725,63.725,0,0,0,4.414,7.453h.076a72.971,72.971,0,0,0,10.277,11.775,67.262,67.262,0,0,0,12.887,9.357h-.088a87.951,87.951,0,0,0,14.623,6.4,112.431,112.431,0,0,0,16.934,4.2c13.646,1.59,27.244,2.8,40.416,3.605,13.145.793,26.178,1.2,38.734,1.2,12.32,0,24.543-.383,36.33-1.143,11.809-.76,23.494-1.9,34.73-3.406a76.244,76.244,0,0,0,16.912-3.633,69.054,69.054,0,0,0,15.021-7.227h-.125a73.372,73.372,0,0,0,11.189-8.947,89.276,89.276,0,0,0,9.955-11.49h-.023c2.248-3.158,4.248-6.268,6.107-9.5l.846.512,9.756,4.576c-.217.35-.432.711-.637,1.063l-.1.172c-.061.1-.119.2-.174.3-.047.074-.092.15-.135.227l0,0-.1.174-.027.043c-.5.846-.969,1.643-1.48,2.436a114.617,114.617,0,0,1-16.332,20.352h.1a89.952,89.952,0,0,1-31.658,20.609h-.037a90.17,90.17,0,0,1-14.973,4.16c-32.605,2.355-60.379,3.557-82.562,3.557C21242.684,18406.4,21234.416,18406.2,21227.107,18405.809Zm127.23-7.377c2.074-.9,4.016-1.844,5.766-2.8l2.717,5.346c-1.768.922-3.6,1.811-5.939,2.879Zm10.008,1.691-2.717-5.34c1.262-.7,2.475-1.434,3.65-2.146l.359-.221c.33-.2.664-.4,1-.6l3.563,4.916a65.527,65.527,0,0,1-5.854,3.395v.006Zm-220.361-.684c-1-.459-2.09-1.029-3.223-1.687l2.971-4.834c.564.307,1.168.588,1.746.857.377.172.8.371,1.223.582l-2.717,5.082v.01Zm-50.457-16.363a124.463,124.463,0,0,1-8.66-15.521l4.494-2.123a118.029,118.029,0,0,0,10.35,16.205,90.605,90.605,0,0,0,8.477,11.281l-3.9,4.154A119.717,119.717,0,0,1,21093.527,18383.076Zm45.623,13.9c-.475-.227-.937-.5-1.391-.76l-.043-.027c-.162-.1-.328-.2-.518-.3l2.711-5.006.168.092c.7.387,1.412.791,2.043,1.18l-2.971,4.824v.01Zm232.488-1.182-3.562-4.914a44.425,44.425,0,0,0,4.58-3.314l4.07,4.672c-1.656,1.246-3.369,2.441-5.088,3.557v.006Zm-235.883-.846c-.383-.258-.8-.518-1.2-.77l-.059-.039-.08-.049c-.346-.221-.7-.441-1.035-.662l-.588-.34,3.477-4.414c.184.113.371.232.561.355l.059.039c.512.322,1.045.662,1.584.965l-2.715,4.914v.006Zm-4.322-2.883-.076-.049c-.609-.441-1.148-.83-1.623-1.223l3.057-4.5c.34.26.689.5,1.029.729l.012.01.016.012c.318.221.646.447.975.7l-3.389,4.322v.006Zm110.855-.42-.172-5.6c3.982.043,7.918.064,11.707.064,3.719,0,7.658-.021,11.705-.064l-.254,5.766c-1.795.021-3.729.033-6.1.033C21254,18391.846,21248.477,18391.781,21242.289,18391.646Zm24.686.166v-.006l.166-5.842.162-.01c5.033-.076,10.24-.162,15.359-.334l.174,5.771c-5.051.242-9.961.328-15.857.42Zm-40.309-.84-.621-.027-1.314-.064.426-5.26c5.143.172,10.516.264,15.252.334l.018.01.166,5.59C21235.969,18391.414,21231.451,18391.2,21226.666,18390.973Zm57.861.328-.08-5.68c2.08-.092,4.219-.152,6.283-.211l.064-.006.533-.016c1.865-.055,3.795-.113,5.67-.189l.508,5.342-6.068.355-.125.006q-3.29.193-6.58.383l-.205.021Zm93.557-.086-4.068-4.656c1.324-1.062,2.607-2.172,3.643-3.057l4.328,4.49-.006.01c-1.186,1.029-2.521,2.193-3.9,3.213v.006Zm-169.3-1.348v-4.926c4.727.248,9.281.41,14.1.576h.074l.5.021-.426,5.26C21218.188,18390.535,21213.338,18390.191,21208.783,18389.867Zm90.42.588-.6-5.342c2.041-.086,4.1-.193,6.078-.291l.1-.01c2.09-.1,4.139-.205,6.209-.291l.506,4.92c-4.182.432-8.2.766-12.3,1.02Zm-170.826-.68c-.426-.34-.863-.711-1.271-1.057s-.842-.717-1.271-1.061l3.475-4.07c.738.646,1.568,1.277,2.125,1.693l-3.057,4.494v.006Zm77.432-.184c-4.064-.344-9.125-.77-13.986-1.256l.34-4.58c2.855.275,5.432.518,8.143.674,1.121.092,2.291.156,3.412.221h.012l.264.016c.992.055,2.021.119,3.012.189v4.84Zm107.391-.328-.512-4.91,4.414-.258.68,4.666c-.928.1-1.893.205-2.879.318l-.852.092-.852.1Zm6.359-.68-.678-4.58c1.783-.064,3.475-.205,5.266-.355l.156-.012.6-.049,1.023,4.242-.264.027-.1.016c-1.969.232-4,.48-6,.717Zm-139.355-1.52-1.105-.166,1.191-4.922c2.99.609,6.225,1.127,10.176,1.611l-.254,4.576v.006C21186.982,18387.836,21183.646,18387.5,21180.2,18387.064Zm147.414.588-1.02-4.15,2.717-.166a89.473,89.473,0,0,0,10.176-2.631l2.037,4.576a78.539,78.539,0,0,1-11.533,2.037l-2.377.34Zm51.318-5.336c2.4-2.227,4.672-4.506,6.953-6.957l4.408,4.494a89.022,89.022,0,0,1-7.039,6.957Zm-213.83,1.186,1.779-5.006a116.434,116.434,0,0,0,11.707,3.141l-1.191,4.916v.006C21172.965,18385.668,21168.83,18384.639,21165.105,18383.5Zm-40.545,2.965a15.275,15.275,0,0,1-1.7-1.611l3.4-3.988.334.258c.252.205.484.416.705.621l.027.021c.232.215.463.426.711.625l-3.477,4.074v.006Zm216.541-6.359a77.858,77.858,0,0,0,11.561-4.937,72.33,72.33,0,0,0,9.9-6.338l3.563,4.322a65.187,65.187,0,0,1-10.721,6.855,67.2,67.2,0,0,1-12.18,4.764Zm-140.715,2.711a136.679,136.679,0,0,1-28.754-4.689h.061a83.1,83.1,0,0,1-19.629-8.262,64.762,64.762,0,0,1-15.059-12.148h-.061a61.155,61.155,0,0,1-10.486-16.729,79.6,79.6,0,0,1-5.461-20.934c-2.025-15.855-3.416-31.9-4.4-44.1h-.012c-2.043-26.064-3.072-52.371-3.051-78.186.027-25.326,1.057-49.477,3.051-71.783.037-.539.092-1.121.168-1.828.059-.561.129-1.207.172-1.811a117.178,117.178,0,0,1,2.852-20.318,81.8,81.8,0,0,1,5.965-17,63.528,63.528,0,0,1,7.7-12.062,57.6,57.6,0,0,1,9.971-9.609,63.685,63.685,0,0,1,12.223-7.2,79.4,79.4,0,0,1,14.471-4.8c18.076-1.9,35.227-3.357,50.975-4.311,15.705-.955,30.424-1.439,43.742-1.439,14.713,0,28.133.592,39.893,1.762l.414-.006c.438,0,.885,0,1.332,0a111.355,111.355,0,0,1,22.4,2.1,73.883,73.883,0,0,1,18.566,6.332,61.239,61.239,0,0,1,14.961,10.629,69.094,69.094,0,0,1,11.588,14.988l-11.453,5.814c-.312-.5-.619-.971-.937-1.471l-.043-.064-.033-.043-.025-.049-.1-.156c-.086-.141-.178-.275-.264-.41h-.172a56.8,56.8,0,0,0-8.914-10.271,53.851,53.851,0,0,0-9.523-6.895,47.572,47.572,0,0,0-16.848-5.906,625.787,625.787,0,0,0-63.359-3.109c-14.1,0-28.812.436-43.715,1.3-14.881.873-30.3,2.193-45.854,3.934a58.247,58.247,0,0,0-18.578,7.762,46.373,46.373,0,0,0-13.23,13.188c-4.5,6.791-7.557,15.15-9.076,24.852l-.07.744-.027.3c-.457,4.846-.932,9.857-1.33,14.908h0c-2.068,25.2-3.141,50.607-3.189,75.533s.932,50,2.91,74.5h.01c1.467,17.721,3,32.326,4.836,45.973a59.491,59.491,0,0,0,6.945,21.035,44.352,44.352,0,0,0,5.957,8.063,43.088,43.088,0,0,0,7.594,6.43h.031a59.508,59.508,0,0,0,22.135,8.326c14.213,1.92,28.457,3.379,42.336,4.34,13.855.959,27.76,1.443,41.336,1.443a554.369,554.369,0,0,0,67.559-4.086,62.326,62.326,0,0,0,13.355-3.658,52.491,52.491,0,0,0,11.318-6.187,51.151,51.151,0,0,0,13.527-15.145,77.559,77.559,0,0,0,8.455-21.66c.422-3.121.916-6.209,1.473-9.631l.021-.119c.721-4.5,1.547-9.6,2.063-14.508.686-6.193,1.445-13.475,1.887-20.523h-.021c1.434-22.578,1.32-45.084,1.02-64.125l-.006-.129c-.41-22.07-.84-44.895-3.643-67.219-.529-4.393-1.488-11.178-3.023-18.572h-.027a192.949,192.949,0,0,0-6.7-25.547l12.186-4.705a130.163,130.163,0,0,1,4.414,14.176c1.271,5.027,2.361,10.439,3.244,16.076.34,1.967.609,4.086.83,5.8l.021.135a570.555,570.555,0,0,1,5.568,69.418c.576,23.207.107,48.23-1.4,74.375h.016c-.3,5.125-.723,10.66-1.029,14.7v.021l-.021.295c-.156,2.021-.346,4.533-.512,6.84a154.773,154.773,0,0,1-2.129,18.357,114.309,114.309,0,0,1-4.09,16.141,87.3,87.3,0,0,1-6.053,13.953,72.291,72.291,0,0,1-8,11.771h-.039a67.6,67.6,0,0,1-13.393,12.057,72.034,72.034,0,0,1-16.68,8.381h-.092a94.489,94.489,0,0,1-12.461,3.48c-26.016,1.834-51.4,2.766-75.465,2.766C21235.25,18384.4,21217.373,18383.869,21200.387,18382.818Zm-78.795.932-.016-.016c-1.256-1.332-2.68-2.84-4.055-4.387l3.391-3.73c1.148,1.293,2.441,2.613,4.07,4.156l-3.391,3.977v.006Zm41.9-.76a80.093,80.093,0,0,1-15.01-6.7l3.055-4.586a85.221,85.221,0,0,0,13.738,6.283l-1.783,5v.006Zm227.912-4.328-4.414-4.576c1.029-1.2,2.041-2.381,3.055-3.643l4.754,4.15-.059.074c-1.057,1.295-2.156,2.646-3.336,3.994v.006Zm-274.984-.684c-1.191-1.461-2.75-3.434-4.242-5.67l3.648-3.137c1.02,1.412,2.389,3.293,3.988,5.174l-3.395,3.633v.01Zm30.617-2.539a66.055,66.055,0,0,1-13.484-10.85l4.242-3.395a63.624,63.624,0,0,0,12.3,9.668l-3.057,4.576v.006Zm248.775-2.205-4.748-4.148c2.193-2.793,3.842-5.045,5.346-7.3l4.662,3.988c-1.914,2.965-3.584,5.326-5.26,7.459v.006Zm-28.328-1.186-3.648-4.24a64.278,64.278,0,0,0,9.588-9.584l4.242,3.645a72.778,72.778,0,0,1-10.182,10.18v.006Zm-256.238-1.2c-1.418-2.113-2.523-3.9-3.477-5.584l4.242-2.123.1.172.107.172c.852,1.391,1.73,2.83,2.674,4.236l-3.648,3.127v.01Zm143.512-1.094-.254-5.514c3.309.086,6.672.086,9.928.086h.506c4.588,0,9.33,0,14-.086l.086,5.26c-6.053.193-12.164.291-18.168.291C21259.148,18369.8,21257.213,18369.785,21254.756,18369.76Zm-25.105-.766-.252-5.508c4.354.172,8.477.334,12.977.506h.422l1.352.027c2.82.08,5.734.156,8.656.227l.258,5.508v.006C21245.373,18369.678,21237.492,18369.42,21229.65,18368.994Zm51.061.506-.086-5.254c6.506-.082,13.211-.254,19.936-.508l.254,4.754c-6.607.5-13.371.846-20.1,1.014Zm-74.979-2.279.254-5.008c7.281.508,14.584.934,21.715,1.273l.338,5.426C21219.082,18368.4,21212.205,18367.873,21205.732,18367.221Zm251.744,1.52-30.7-10.936h-.254a52.53,52.53,0,0,1-6.35-11.15,37.806,37.806,0,0,1-2.576-10c-.742-6.4.2-12.314,1.191-18.576.107-.674.221-1.354.324-2.033,1.9-12.121,3.229-25.232,4.08-40.086h-.064c.986-17.182,1.443-36.859,1.443-61.92h35.791v8.988h.848v.842h13.23c.561,15.99.248,33.518-.932,52.09-2.076,30.832-6.656,60.664-12.553,81.85h-.043c-1.314,4.705-2.436,8.283-3.434,10.941Zm-154.965-.426-.258-4.656.5-.027c3.531-.15,7.535-.318,11.465-.57a96.141,96.141,0,0,0,12.379-1.693l.594,4.576c-7.682.959-15.754,1.74-24.68,2.377Zm-117.049-3.309.674-4.236c2.295.248,4.613.34,6.85.42l.107.006c3.541.322,7.146.57,10.635.809h.053l.508.043-.34,5v.006C21197.676,18366.434,21191.455,18365.75,21185.463,18365.006Zm-101.361.932a151.482,151.482,0,0,1-6.316-16.271c-1.816-5.578-3.428-11.543-4.8-17.736l4.242-.76a140.261,140.261,0,0,0,4.668,17.037,119.508,119.508,0,0,0,6.7,15.705l-4.5,2.025v.006Zm244.193-4.92a56.52,56.52,0,0,0,20.949-9.324l3.223,4.576a49.789,49.789,0,0,1-10.832,5.992,61.029,61.029,0,0,1-12.746,3.514Zm-150.469,3.061a58.933,58.933,0,0,1-10.01-2.543l1.951-4.414a67.12,67.12,0,0,0,14.59,3.48l-.674,4.236-.006.006C21181.98,18364.617,21180.121,18364.375,21177.826,18364.078Zm224.262.162-4.752-3.891c.543-.836,1.066-1.678,1.563-2.469l.119-.189c.5-.8,1.018-1.621,1.547-2.43l5.34,2.285c-.883,1.7-1.891,3.422-2.781,4.932-.291.49-.668,1.137-1.035,1.762v.006Zm-295.086-.588a64.565,64.565,0,0,1-3.223-6.273l4.16-2.117c1.008,2.182,2.119,4.316,3.3,6.359l-4.242,2.031v.006Zm25.449-.34a72.4,72.4,0,0,1-10.605-15.436l-.34-.678,4.834-2.377a62.069,62.069,0,0,0,10.268,15.01l-4.156,3.48v.006Zm132.484-.76-.086-4.947-.08-6.5c3.811.086,7.627.129,11.34.129a331.38,331.38,0,0,0,35.9-1.746c13.922-.674,24.383-4.2,31.982-10.768l2.2,2.205,2.459-1.865,5.686,5.934a51.511,51.511,0,0,1-20.9,12.709,80.744,80.744,0,0,1-19.393,3.578c-14.848.846-29.986,1.283-45,1.283C21267.664,18362.564,21266.213,18362.553,21264.936,18362.553Zm-21.217-.172-.582-11.959,19.6.646v11.313Zm-50.539-2.883a91.53,91.53,0,0,1-14.541-1.779H21178a52.071,52.071,0,0,1-13.361-4.84,39.506,39.506,0,0,1-10.293-7.9,40.85,40.85,0,0,1-7.227-10.963,56.887,56.887,0,0,1-4.15-14.045c-.912-2.852-1.752-8.375-2.576-16.863-.652-6.748-1.3-15.631-2-27.152-1.332-23.461-2.129-47.795-2.209-58.789-.266-32.941-.27-62.551,2.393-91.256h-.016l.01-.285.006-.189a1.245,1.245,0,0,1,.01-.187l10.914,1.244v1.449c-2.025,34.117-2.8,63.855-2.291,88.383-.338,20.012.26,40.072,1.779,59.631h-.021c1.105,14.771,2.527,28,4.35,40.453a41.364,41.364,0,0,0,4.623,14.18,31.425,31.425,0,0,0,8.969,10.1,39.559,39.559,0,0,0,13.2,6.064,68.675,68.675,0,0,0,17.316,2.059l42.664,1.525.34,7.383.166,4.494C21225.5,18361.723,21209.549,18360.807,21193.18,18359.5Zm-26.975,1.438a49.739,49.739,0,0,1-8.893-4.4,40.945,40.945,0,0,1-7.307-5.859l3.48-4.074a42.609,42.609,0,0,0,14.67,9.842l-1.951,4.488v.006Zm212.559-.426-4.242-3.643a77.594,77.594,0,0,0,8.65-14l5.346,3.137a104.442,104.442,0,0,1-9.754,14.5v.006Zm-281.264-19.078,4.754-.846a131.217,131.217,0,0,0,4.916,13.145l-4.156,2.113A142.478,142.478,0,0,1,21097.5,18341.432Zm256.24,13.738-3.137-4.49a57.3,57.3,0,0,0,5.939-5.346l.252-.34.934-1.1a51.07,51.07,0,0,0,8.822-15.016l4.322,1.359c-3.854,10.568-9.615,18.959-17.133,24.932v.006Zm54.709-2.809v-.41l-4.662-1.357,2.117-8.311,4.668,1.779-2.119,8.3Zm-269.471-20.426,5.006-.937a44.558,44.558,0,0,0,8.311,14.422l-3.477,4.068A46.868,46.868,0,0,1,21138.979,18331.936Zm262.346,16.869-10.687-3.811c2.76-7.018,5.1-16.416,6.947-27.924,1.82-11.312,3.238-25.119,4.219-41.035h-.053c1.082-17.715,1.611-38.1,1.611-62.34v-3.816c.135-16.5-.217-30.957-1.078-44.205a335.864,335.864,0,0,0-4.76-39.764h-.016c-1.1-6.062-1.807-10.49-3.295-16.293l-3.66-12.295,0,0s-2.594-8.117-4.156-12.3l12.385-5.088c.15.42.518,1.531.836,2.512l.049.135c.328.992.668,2.027.813,2.441.922,2.889-.465-1.922.387,1.107l-7.6,2.635,3.219,12.281,7.877-2.072c1.682,6.887,4.713,19.49,6.039,26.934,4.531,25.719,6.7,54.682,6.445,86.082.533,24.668.119,45.617-1.271,64.043h-.033a344.5,344.5,0,0,1-5.023,39.678,191.08,191.08,0,0,1-9.193,33.092v.006Zm-123.582-.937.254-16.611,33.42-.852a42.254,42.254,0,0,0,13.986-3.061,26.17,26.17,0,0,0,9.852-7.2c2.785-8.5,4.883-20.523,6.234-35.721l9.162.086v-14.143l-8.207-.129c.457-9.184.711-19.418.781-31.27l15.521.092-1.6,36.578-1.111,25.168a73.5,73.5,0,0,1-3.594,19.031,44.169,44.169,0,0,1-3.461,7.6,35.35,35.35,0,0,1-4.684,6.332c-7.189,7.68-17.834,11.744-32.541,12.412a312.275,312.275,0,0,1-34.014,1.7Zm-80.234-2.447a66.03,66.03,0,0,1-16.383-1.908,36.122,36.122,0,0,1-12.191-5.566,28.2,28.2,0,0,1-8.105-9.211,37.9,37.9,0,0,1-4.119-12.832c-1.955-13.766-3.437-27.18-4.4-39.867h-.012c-1.434-19.525-2.031-39.586-1.777-59.629-.508-24.484.258-54.191,2.289-88.291a9.921,9.921,0,0,1,.1-1.143l.012-.135a9.055,9.055,0,0,0,.086-.928h-.027a66.814,66.814,0,0,1,2.6-17.645,34.125,34.125,0,0,1,6.984-13.064,27.513,27.513,0,0,1,8.975-6.457,52.045,52.045,0,0,1,12.146-3.719h-.08c2.2-.426,4.582-.766,7.039-1.105,21.979-1.018,44.291-1.535,66.307-1.535,18.018,0,36.234.34,54.133,1.029,3.125.41,6.154.953,8.99,1.611a67.681,67.681,0,0,1,11.6,3.7,25.74,25.74,0,0,1,8.924,5.8,56.924,56.924,0,0,1,6.975,14.795l-8.742,2.193,4.291,17.8,8.59-1.994a439.644,439.644,0,0,1,6.533,60.072l-15.861.092a447.549,447.549,0,0,0-6.9-61.5h-.055c-.609-3.363-1.293-6.619-2.037-9.664a27.19,27.19,0,0,0-4.516-10.391c-2.236-2.986-4.9-4.732-7.7-5.045-16.437-2.031-35.941-3.008-59.635-3.008-19.246,0-41.746.646-68.781,1.984-7.221.34-12.8,1.725-16.582,4.139a12.671,12.671,0,0,0-6.15,10.369l-8.057-1.951-.842,13.49h-.021l-.322,4.236,7.463.254c-1.5,24.818-2.289,49.508-2.35,73.389-.064,23.8.6,47.428,1.973,70.23l-8.666.9,2.754,23.078h-.074l2.969,19.008,7.891-1.951,14.082,13.658,42.83,3.389.34,14.5v.006Zm-83.127-21.207-.168-1.014-.086-.766c-.426-2.193-.75-4.334-1.1-6.7l5.768-.426c.086.83.193,1.688.3,2.527l.006.012c.1.775.205,1.6.285,2.381a79.017,79.017,0,0,0,6.279,23.068l-4.84,2.285A90.347,90.347,0,0,1,21114.381,18324.213Zm269.389,17.133a110.727,110.727,0,0,0,5.682-16.281l4.58,1.018a130.776,130.776,0,0,1-5.088,18.314Zm-35.629-6.7c6.363-7.551,9.922-17.9,11.107-30.877l10.611,2.037c-1.191,15.6-5.686,27.988-13.408,37.064Zm63.023,7.885-4.666-1.779,2.037-7.971,4.58,1.951-1.951,7.8v.006Zm-314.17-2.717c-1.449-4.576-2.8-9.8-4.242-16.449l4.834-1.186c.119.6.244,1.207.367,1.795.043.217.086.432.129.646.178.863.355,1.725.523,2.561v.086c1.014,4.414,2.037,8.24,3.137,11.707l-4.748.846Zm316.715-6.785-4.582-1.945,1.7-6.785,4.666,1.611-1.783,7.119v.006Zm-340.973-2.711a264.583,264.583,0,0,1-4.5-31.377l-.086-.68,5.174-.264.4,4.666.615,7.045a163.311,163.311,0,0,0,2.629,19.85l-4.24.766Zm63.951-8.73-.34-2.463,4.5-.426c.053.2.1.387.135.561l.025.113.018.064a9.776,9.776,0,0,0,.248.959,56.631,56.631,0,0,0,2.209,8.9l-4.92.852A84.455,84.455,0,0,1,21136.688,18321.588Zm234.865,7.113-4.41-1.348a71.112,71.112,0,0,0,2.98-11.27c.637-3.471,1.133-7.3,1.516-11.717l.252-5.766,5.262.592c-.48,3.676-1.1,7.471-1.635,10.822-.527,3.262-1.125,6.959-1.59,10.467a76.541,76.541,0,0,1-2.375,8.219v.006Zm-271.59-3.395a246.516,246.516,0,0,1-4.154-27.725c-.533-9.242-.885-15.715-1.17-21.627h-.021c-.922-19.154-1.559-35.441-1.945-49.789h7.885v-21.461h-8.311c-.33-26.414.215-50.209,1.611-70.742.08-2.566.252-5.2.4-7.529l.031-.523h-.01c.27-4.576.7-9.033,1.283-13.252l14.006,2.059c-.42,3.676-.8,7.438-1.121,11.193-1.832,20.422-2.715,41.908-2.635,63.865-.3,16.553-.334,32.188-.119,46.49.227,14.391.723,27.74,1.477,39.689a396.953,396.953,0,0,0,5.342,46.732l.086.512-12.639,2.117Zm289.914-1.859a151.868,151.868,0,0,0,2.8-15.689l4.408.426c-.7,5.189-1.584,10.516-2.711,16.281v.006Zm21.541-1.014,1.271-7.891,4.922,1.359-1.445,8.219Zm-319.006-.771c-.57-2.984-1.3-6.941-1.951-11.1l-.252-2.463,5.006-.168c.652,4.662,1.219,8.555,2.037,12.639l-4.84,1.1Zm43.77-4.154c-.83-6.506-1.693-13.426-2.377-20.184l4.328-.082c.672,8.166,1.514,15.205,2.371,19.846l-4.322.426Zm281.516-3.477-5.008-1.357,1.277-7.713,5,1.7-1.271,7.373v.006Zm-304.928,0c-1.1-7.422-2.033-15.693-2.793-24.592l6.016-.6c.852,9.232,1.713,17.359,2.629,24.861l-5.852.34Zm280.156-7.971c.33-2.711.5-5.406.68-8.4l.027-.361c.322-4.205.658-8.564.906-12.871l5.006.168c-.49,6.09-1.18,14.072-2.209,21.881v.006Zm-302.8.334-.049-.555-.027-.275c-.4-4.641-.793-9.027-1.111-13.582h4.922l.34,5.682c.264,2.984.635,6.035.932,8.482l-5.006.254Zm323.926-3.471,1.1-6.7,5.174.846-.082.852-1.186,6.775Zm-54.537-1.7v-.254l1.121-25.018h-.021l1.611-36.816,10.688.086-1.611,36.73-1.268,26.877,0,.006Zm-199.342-25.406s7.729-.729,7.777-.664c.34,4.711,1.449,20.395,1.557,21.883l.006.059.006.059-4.883.539.641-.086-2.447.264Zm211.809,21.084,1.443-31.811,6.359.508c-.426,10.256-1.2,20.615-2.291,30.795l-.086,1.094v.006Zm-304.082-.346c-.848-9.943-1.482-18.68-1.947-26.721l5.428-.594c.426,9.1,1.025,18.2,1.785,27.066l-5.262.254Zm65.74-1.023c-.727-6.641-1.3-13.447-1.854-20.033l-.016-.2-.082-.965h4.834c.4,7,.906,14.3,1.445,21.121l-4.328.086Zm281.6-1.348.852-8.488,5.088.852-.852,8.4v.006Zm-326.471-3.816c-.156-2.053-.3-4.133-.447-6.262-.141-2.07-.3-4.42-.484-6.721h5.174c.129,2.08.23,4.225.334,6.295l.021.426c.1,2.01.205,4.16.328,6.256v.006Zm19.51-26.635,5.686.086c.514,7.842,1.111,15.662,1.779,23.24l-5.934.592C21109.217,18280.33,21108.705,18272.279,21108.273,18263.736Zm291.439,19.252-5-.168c.414-6.105.754-12.406,1.018-18.744h5.088c-.242,6.063-.641,11.992-1.061,18.27l-.039.643Zm-311.963-7.373c-.074-1.332-.156-2.684-.236-3.994l-.027-.4c-.187-3.051-.383-6.209-.5-9.346l5.26-.252c.145,4.025.361,8.035.588,12.277l.01.182.08,1.531v.006Zm43.85-2.971c-.512-6.795-.959-13.92-1.354-20.2l0-.07,5.174-.006c.264,6.775.6,13.594,1.018,20.275Zm-65.65-4.586c-.457-7.713-.812-15.8-1.1-25.437l5.6-.26c.15,7.563.457,15.8.932,25.191l-5.428.512Zm307.473-4.656,1.1-23.924,5.854-.254c-.1,9.447-.287,17.289-.594,24.684Zm22.389-1.105c.334-8.229.678-16.744.766-25.189h5.006c-.08,7.355-.3,15.613-.684,25.266v.006Zm-287.617-.252c-.328-6.916-.5-14.277-.68-22.48l5.174-.172.027.555c.324,7.266.662,14.783,1.158,22.258v.006Zm-21.295-1.877c-.252-4.527-.426-9.221-.57-12.994l-.021-.57,5.346.172.086,2.258c.168,4.279.3,7.74.422,10.887l-5.262.254Zm43.176-9.4v-.043c-.334-6.629-.68-13.484-.846-20.318l5.428-.168c.135,4.824.322,10.354.512,15.7.053,1.584.107,3.2.162,4.822v.006Zm-43.854-5.857-.006-.088v-.025c-.162-4.426-.334-9-.41-13.453h5.336c.08,2.123.141,4.316.205,6.436l.016.545c.055,2.166.119,4.473.205,6.752v.006Zm-21.543-3.908c-.258-8.586-.426-17.031-.506-25.1l5.848-.166c0,9.42.107,17.6.34,25.018l-5.682.254Zm42.664-24.166,4.668.086c.139,5.637.322,13.355.592,20.7l-5.088.172C21107.422,18230.834,21107.342,18224.016,21107.342,18216.832Zm261.412,18.658-31.809.006v-44.2h31.809v44.2Zm27.908-.086.01-.836c.076-6.926.156-14.082.07-21.127l5.008-.092v.346c0,6.439,0,13.732-.088,21.709Zm-310.949-5.762c-.037-2.043-.07-4.215-.107-6.365-.043-2.57-.092-5.551-.145-8.479l5.254.082.006.264v.162c.086,4.662.172,9.475.334,14.33v.006Zm43.1-16.633-.01-.674,5.6.168v4.662c0,2.668.064,6.041.141,9.943l.006.184.021,1.164-5.428.166C21128.975,18223.348,21128.889,18217.855,21128.813,18213.01Zm-36.141,11.459c-.168-6.117-.26-12.041-.34-18.076h6.613v18.076Zm14.584-9.34c0-5.648.08-11.33.162-17.344v-.135l.01-.75,4.408-.086c0,5.691,0,12.143.174,18.4v.006Zm-43-.928c-.08-8.525,0-17.02.092-25.7l6.016.254c-.168,8.494-.254,17-.254,25.277l-5.854.172Zm21.209-1.186c0-1.881-.018-3.783-.033-5.621l-.01-.7c-.018-1.934-.045-4.133-.045-6.316h5.176c0,3.8.068,7.594.145,11.609l.006.07.016,1.039v.006Zm311.2-1.277c-.082-7.842-.3-16.137-.68-25.352l5.6-.174c.193,9.027.248,16.52.168,23.58v1.865l-5.088.086Zm-267.691-1.014c-.055-4.111-.033-8.229-.018-12.213.006-1.783.018-4,.018-6.105l5.346.086c0,5.611,0,11.986.086,18.318Zm295.6-2.123c-.043-14.756-.555-29.092-1.531-42.609-1.012-14.051-2.549-27.535-4.57-40.082h-.01a355.016,355.016,0,0,0-8.99-40.885h-.086c-.113-.371-.227-.754-.334-1.121l-.1-.35-.09-.318c-.1-.318-.189-.646-.287-.959l-.01-.033c-.523-1.816-1.094-3.746-1.719-5.615l30.789-12.553.168.42,5.686-2.8,7.971-3.223c3.137,8.877,5.934,17.834,8.316,26.635h-.064a415.438,415.438,0,0,1,8.8,40.8c1.746,10.693,3.121,21.908,4.1,33.334.955,11.242,1.541,22.971,1.752,34.859h-13.145v.42h-.848v14.078Zm-339.2-9.922c0-2.184.021-4.387.039-6.516l.006-.437,0-.334c.021-2.166.039-4.408.039-6.623l5,.34v13.57Zm22.055-3.477.086-5.428c0-5.275,0-10.262.082-15.268l4.494.172c-.172,6.867-.258,14.023-.34,20.34v.184Zm21.543-4.58c.086-6.582.258-13.254.512-19.846l5,.254c-.166,6.527-.166,12.918-.166,19.672v.006Zm232.658-3.229a445.336,445.336,0,0,0-6.7-61.316l.061-.092h-.061l11.027-2.879.082.254.059.285.012.055c.139.717.291,1.471.49,2.172h.01a.161.161,0,0,0,.012.049v0l0,.039c.006,0,.006,0,.006.01s0,.012.006.012c3.514,17.381,5.594,38.012,6.188,61.332l-11.189.076Zm-297.291-.674c.092-8.705.361-17.463.594-25.191l6.279-.08c-.309,7.771-.545,15.5-.771,22.975l-.021.686-.059,1.859v.01Zm310.1-1.359c-.242-8.914-.814-18.389-1.7-28.154l5.092-.258c.771,8.639,1.311,17.693,1.7,28.494Zm21.461-.77c-.383-7.863-.824-14.66-1.357-20.771h5.938c.508,6.822.848,13.787,1.02,20.7l-5.6.086Zm-310.35-1.434c.037-1.494.059-3,.08-4.539v-.166c.021-1.541.043-3.137.086-4.705l4.922.334c-.086,3.051-.086,6.24-.086,9.324Zm22.135-10.348c.092-6.732.355-13.3.592-19.09l4.668.178c-.346,6.43-.6,12.639-.766,18.992v.006Zm-21.883-.76c.076-4.205.238-8.393.4-12.439v-.082l.021-.543,4.754-.168c-.168,4.291-.254,8.645-.34,13.475v.01Zm43.764-2.971c.178-5.67.438-11.258.766-16.621h4.748c-.254,5.572-.42,11.086-.506,16.869v.006Zm264.895-7.039c-.518-5.68-1.164-12.746-1.951-19.256l5.768-.937c.873,6.273,1.563,12.881,2.117,20.193Zm-329.525-2.129c.264-9.119.732-18.594,1.105-26.2l6.531.426c-.523,8.834-.965,17.8-1.357,25.7l-6.279.08Zm21.375-2.711c.242-6.078.566-12.121.879-17.969l.053-1.023h4.668c-.334,5.924-.68,12.262-.852,18.912l-4.748.086Zm286.264-1.7c-.8-8.234-1.859-16.055-3.137-23.234l5.088-.592c.867,4.656,1.471,9.215,1.951,13.059.42,3.406.852,7.043,1.191,10.52l-5.094.254Zm-264.211-3.471c.34-8.133.836-15.764,1.525-23.326l4.754.168c-.625,6.941-1.152,14.572-1.611,23.32v.006Zm21.969-1.271c.322-6.408.787-12.709,1.357-20.275l4.748.248c-.506,6.613-.932,13.35-1.271,20.021v.006Zm261.834-9.68c-.3-2.275-.594-4.479-.922-6.92-.125-.922-.238-1.768-.346-2.576-.258-2.129-.6-4.279-.937-6.273l5.428-.76c1.035,5.227,1.869,10.326,2.549,15.607l-5.771.928Zm22.053-2.711-1.439-7.545,5.262-.76.932,7.631-4.754.68Zm-326.891-1.859q.164-2.5.324-4.98c.064-.959.123-1.912.184-2.867l.027-.361c.16-2.49.322-4.979.484-7.486.086-1.271.172-2.543.258-3.729l4.662.254c-.592,5.248-.932,10.811-1.018,16.539l-.168,2.625-.006.006Zm-21.121-4.582.086-1.529a260.244,260.244,0,0,1,3.4-31.389l5.68,1.2a142.365,142.365,0,0,0-1.865,20.529c-.1,1.605-.209,3.217-.312,4.824l-.053.824c-.135,1.988-.27,4.037-.395,6.047l0,.006Zm302.973-1.363c-.426-2.555-.934-5.119-1.525-7.625l-.34-2.037-1.354.338,1.354-.426c-.971-4.877-1.914-8.758-2.965-12.217l4.748-.846c2,6.93,3.789,14.615,5.174,22.221l-5.092.6Zm-232.568-1.443-4.754-.248.1-1.246.006-.053c.469-5.713.959-11.609,1.59-17.451l.168-1.014,5.006.852a100.31,100.31,0,0,0-1.865,16.023l-.248,3.137Zm275.83-.082-1.182-6.191,5.25-1.525,1.277,6.2.08.76-5.426.766Zm-302.465-2.031c.344-4,.791-8.014,1.186-11.453l4.494.594-.016.172c-.061.76-.125,1.525-.189,2.27l-.016.166c-.092,1.127-.189,2.3-.285,3.5-.184,1.773-.346,3.373-.422,5l0,.006Zm28.887-3.434a64.622,64.622,0,0,1,.9-9.771c.092-.021,10.822,1,10.816,1.041a92.171,92.171,0,0,0-.9,10Zm250.93.033c-1.055-6.242-2.252-11.793-3.648-16.955l4.836-1.445c1.545,5.605,2.9,11.377,4.154,17.641l-5.342.766Zm21.037-2.463-1.359-7.033,5.26-1.186,1.359,6.7-5.26,1.516v.01Zm-322.057-5.756a125.856,125.856,0,0,1,1.691-13.146l5.008.848c-.82,3.848-1.5,8.063-2.037,12.551Zm22.646-1.525c.549-4.678,1.191-9.211,1.691-12.639l.174-.68,4.748,1.7a107.235,107.235,0,0,0-2.123,12.2v.01Zm28.516-1.525a66.357,66.357,0,0,1,4.527-15.414,44.939,44.939,0,0,1,7.584-11.9h.086a39.96,39.96,0,0,1,7.33-6.424,43.56,43.56,0,0,1,8.893-4.646,64.678,64.678,0,0,1,22.451-3.945c27.348-1.541,53.076-2.322,76.488-2.322,7.217,0,14.1.07,20.459.205l.049-.006c.824-.006,1.449-.006,2.031-.006a182.852,182.852,0,0,1,25.666,1.666,108.612,108.612,0,0,1,21.115,5.045,32.863,32.863,0,0,1,7.385,4.01,37.6,37.6,0,0,1,6.439,5.912l-.512.6h-.156l-3.234,3.9-3.988-1.783-2.2,2.457a36.652,36.652,0,0,0-8.43-4.576h-.141c-2.371-.922-4.936-1.777-7.631-2.549a101.992,101.992,0,0,0-12.639-2.457c-17.92-.686-36.213-1.029-54.369-1.029-22.064,0-44.469.512-66.582,1.535-7.713.928-13.873,2.4-18.832,4.5l-.365-.006a31.1,31.1,0,0,0-11.34,7.811c-4.521,4.953-7.637,11.852-9.26,20.49v.006Zm-44.119-1.725,1.348-7.229,13.512,2.729-.932,6.547Zm311.957-5.32,5.006-1.525,1.525,7.541-5.174,1.2Zm-273.793,2.119a67,67,0,0,1,4.1-13.5,48.506,48.506,0,0,1,6.506-11.016l4.328,3.395a48.735,48.735,0,0,0-5.875,9.934,67.246,67.246,0,0,0-3.967,12.029v.006Zm220.275-20.352,3.729-3.309a60.165,60.165,0,0,1,3.9,5.934,75.447,75.447,0,0,1,6.619,16.373l-4.754.928A72.814,72.814,0,0,0,21354.252,18087.063Zm31.383,17.975a112.2,112.2,0,0,0-6.619-17.807l5.428-2.463c2.291,6.2,4.35,12.535,6.107,18.836l-4.916,1.434v.006Zm21.795-1.525-1.779-6.187,4.836-1.783,1.863,6.531-4.92,1.439v.006Zm-316.715-2.883a117.492,117.492,0,0,1,3.734-14.246l4.922,1.947a112.588,112.588,0,0,0-3.645,13.23l0,.006Zm27.74-.092-4.834-1.687a70.414,70.414,0,0,1,17.219-32.482l3.3,3.3c-7.33,8.145-12.607,18.529-15.689,30.877Zm-42.836-2.113-5.682-1.1c2.555-13.4,6.273-24.662,11.367-34.439l5.088,3.4a109.936,109.936,0,0,0-10.773,32.148Zm329.525-2.717-2.123-7.291,4.92-1.611,2.037,7.125-4.834,1.777v.006Zm-2.889-8.822-2.205-7.545,4.922-1.271v-.34l2.2,7.551-4.92,1.605v.006Zm-302.293-.34-4.92-1.859a101.632,101.632,0,0,1,4.328-10.348l4.834,2.291a104.965,104.965,0,0,0-4.242,9.916v.006Zm278.293-.766a79.7,79.7,0,0,0-8.143-13.225l4.408-3.816a94.431,94.431,0,0,1,8.822,12.639l.508,1.773-5.6,2.629v.006Zm-24.855-.166c-.168-.248-.34-.49-.508-.717l0-.012-.082-.107c-.135-.193-.279-.389-.42-.6a46.02,46.02,0,0,0-7.3-6.877l3.055-3.645a53.352,53.352,0,0,1,8.818,8.732l-3.562,3.223v.006Zm-203.477-.68-4.24-3.3a44.42,44.42,0,0,1,11.447-9.584l2.2,4.582a41.847,41.847,0,0,0-9.41,8.3v.006Zm-32.035-2.883-11.652-5.578a80.04,80.04,0,0,1,7.535-12.078,72.376,72.376,0,0,1,9.346-10.16,85.014,85.014,0,0,1,21.623-15.014,130.4,130.4,0,0,1,28.678-9.928c12.615-1.746,25.67-3.078,38.809-3.957s26.7-1.32,40.309-1.32c13.313,0,27.033.416,40.771,1.256s27.934,2.1,42.2,3.773a63.686,63.686,0,0,1,17.361,4.975,79.445,79.445,0,0,1,16.313,9.836,98.051,98.051,0,0,1,14.66,14.115,116.479,116.479,0,0,1,12.4,17.807l-11.2,5.088-.086-.254a103.1,103.1,0,0,0-10.908-15.139,79.116,79.116,0,0,0-12.482-11.576,67.857,67.857,0,0,0-14.039-8.016,68.6,68.6,0,0,0-15.582-4.451c-17.43-2.15-35.209-3.719-52.844-4.668-7.41-.258-14.961-.387-22.453-.387-25.023,0-51.8,1.416-79.58,4.2-13.916,2.809-26.016,7.744-35.953,14.664a70.413,70.413,0,0,0-23.225,26.814Zm225.928-5.682a35.211,35.211,0,0,0-6.7-3.389c-.529-.162-1.053-.352-1.553-.529l-.076-.031c-.506-.184-1.039-.373-1.6-.545l2.631-5.088a53.627,53.627,0,0,1,10.348,5.854l-3.057,3.729v.006Zm-185.156-5.168a57.525,57.525,0,0,1,12.381-4.92l1.186,4.57a47.8,47.8,0,0,0-11.361,4.84Zm-58.529,1.693c.582-1.16,1.244-2.324,1.881-3.445l.129-.227c.264-.463.533-.947.793-1.416l4.408,3.137c-.836,1.342-1.623,2.828-2.322,4.139l-.055.1Zm297.123,1.52c-1.557-2.594-2.824-4.613-3.988-6.355l5.514-2.969c1.553,2.322,3,4.629,4.414,7.039l-5.939,2.285v.01Zm-65.057-3.051c-2.49-.7-5.41-1.5-8.482-2.113l.766-5.771,1.1.086a44.776,44.776,0,0,1,9.334,2.463l-2.717,5.336v.006Zm36.811-.168a64.491,64.491,0,0,0-10.854-10.605l3.475-4.4a77.831,77.831,0,0,1,11.793,11.281l-4.414,3.729v.006Zm-195.164-.77-1.277-4.57.426-.086c1.729-.174,3.475-.373,5.168-.561l.236-.027c1.541-.178,3.137-.355,4.689-.512l.512,4.068a66.77,66.77,0,0,0-9.754,1.688v.01Zm-65.656-.928-4.322-3.131c.889-1.461,1.875-2.867,2.83-4.221l.07-.1.07-.1,4.322,3.137c-.992,1.406-2.021,2.867-2.971,4.408v.006Zm213.83-.588a140.293,140.293,0,0,0-14.418-1.951v-4.844c5.416.371,10.494.8,15.1,1.277l-.674,5.518Zm-136.727-.264-.426-4.068c4.975-.518,9.662-.934,14.336-1.268l.172,4.582-3.33.193c-1.758.1-3.553.205-5.326.313-1.8,0-3.578.082-5.426.254Zm-50.129-.34-3.223-3.217a73.494,73.494,0,0,1,15.436-11.873l1.7,4.328a63.726,63.726,0,0,0-13.91,10.762v.006Zm65.822-.506-.258-4.662c4.9-.389,9.77-.711,14.48-1.023l.205-.006,1.094-.07v5.088h.082c-4.539.15-9.168.371-13.646.588-.652.031-1.3.059-1.957.092Zm17.387-.766v-5.168l.426-.027h.027c4.424-.248,8.6-.484,12.865-.646l.42,5.34c-1.424.055-2.895.1-4.322.141l-.512.021c-2.771.082-5.908.178-8.9.346Zm73.535-.84.086-5c3.223.113,6.439.313,9.551.5l.684.043c1.213.074,2.463.15,3.676.221v4.834C21300.545,18066.383,21296.1,18066.2,21291.906,18066.2Zm100.428.42c-1.381-1.979-2.84-3.951-4.328-5.848l4.92-3.816c1.7,2.113,3.32,4.42,4.889,6.656l.033.043-5.514,2.965v.006Zm-158.947-5.422c5.066-.184,9.631-.346,14.244-.426l.172,5.428-.275,0h-.16c-4.4.082-8.963.174-13.561.334Zm54.369,5c-6.025-.168-12.164-.168-18.664-.168l-.34-5.437c7.244.092,14.52.264,21.629.518l-.168,5.082v.006Zm-38.256-.006-.172-5.508.453-.012c3.746-.049,7.992-.113,12.072-.113,1.8,0,3.482.012,5.121.033l.334,5.438h-.113c-5.443,0-11.027.076-16.434.15l-1.262.018Zm-162.342-1.445-5.094-3.3a93.793,93.793,0,0,1,9.012-13.619,91.2,91.2,0,0,1,11.432-11.906l3.395,3.73a102.731,102.731,0,0,0-9.5,11.451,93.944,93.944,0,0,0-9.242,13.646v.006Zm25.018-1.018-4.408-3.137c1.418-1.881,2.748-3.52,4.068-5l4.328,3.223c-1.266,1.412-2.5,2.926-3.988,4.91v.01Zm244.705-4.15a64.367,64.367,0,0,0-13.828-7.631l1.611-5.266a67.652,67.652,0,0,1,15.607,8.488l-3.391,4.408v.006Zm29.26-1.293-.01-.012c-1.035-1.244-2.1-2.527-3.213-3.7l4.582-4.068c1.373,1.455,2.775,3.066,4.408,5.088l-4.834,3.811C21386.793,18059.074,21386.486,18058.709,21386.141,18058.283Zm-268.705-.658-4.408-3.3a66.848,66.848,0,0,1,5-5.008l3.9,3.9c-1.51,1.348-2.937,2.754-4.5,4.408v.006Zm33.248-.766-1.777-4.4a94.487,94.487,0,0,1,19.336-7.891l1.7,5.174a75.263,75.263,0,0,0-19.258,7.119v.006Zm231.049-3.648c-1.32-1.412-2.426-2.586-3.648-3.725l3.9-4.58.043.043.021.016c1.439,1.359,2.926,2.76,4.264,4.27l-4.582,3.977v.006Zm-258.7-1.271-3.816-3.811a40.149,40.149,0,0,1,3.648-3.057l3.4,4.07c-.557.469-1.1.947-1.656,1.434-.469.42-1.023.9-1.572,1.363v.006Zm218.5-.68a84.069,84.069,0,0,0-15.521-4.154l.426-4.576c.748.07,1.48.162,2.359.27l.189.021c.883.107,1.8.215,2.711.3a70,70,0,0,1,11.447,2.889l-1.611,5.254v.006Zm-171.672-7.205c2.424-.689,4.9-1.289,7.377-1.779l.135-.016.146-.016c2.328-.238,4.736-.48,7.1-.652l.592,6.537-.635.059c-4.291.395-8.727.809-12.936,1.3Zm206.957,4.322-.021-.016c-1.1-1.02-2.346-2.178-3.627-3.289l3.48-4.748c1.359,1.105,2.75,2.324,3.979,3.4l.092.08-3.9,4.576v.006Zm-249.281-.34-3.311-4.068c1.553-1.143,3.207-2.361,4.836-3.477l2.8,4.328c-1.348.947-2.717,2-4.043,3l-.135.107-.145.107v.006Zm59.371-.086-.594-6.521c1.008-.08,2.016-.178,2.986-.275l.279-.031c1.051-.1,2.168-.205,3.268-.291l.338,6.531-.457.033c-1.725.145-3.865.313-5.82.561Zm7.971-.674-.334-6.527c.895-.07,1.945-.15,2.99-.221l3.875-.291.594,6.441c-1.072.08-2.172.178-3.229.273l-.318.027c-1.213.107-2.393.217-3.578.3Zm113.912-1.611.512-4.916.809.076c4.518.453,9.637.965,14.627,1.535l-.506,4.576v.006A110.649,110.649,0,0,0,21308.785,18045.666Zm-105.176.932-.508-6.439.066-.006.059-.006c4.877-.328,9.922-.674,14.8-.926l.254,6.359-2.781.2c-3.639.248-7.857.539-11.895.824Zm101.193-.932-.668-.064c-3.078-.275-6.9-.615-10.7-.873l.34-5.25c4.5.328,9.141.674,13.824,1.1l-.506,5.082v.006Zm-84.734-.264-.258-6.273c4.877-.248,9.76-.416,14.486-.582h.189l.252,6.105c-1.109.055-2.215.113-3.318.168-.928.053-1.855.1-2.781.145l-.346.021c-2.689.135-5.465.281-8.225.426Zm52.586-1.434v-5.682c1.029.043,2.07.064,3.078.082l.1,0c1.072.018,2.113.039,3.105.082l.49.031.361.021c4.02.238,8.176.48,12.293.8l-.34,5.34v.006C21284.941,18044.275,21278.523,18044.043,21272.654,18043.969Zm-36.217.592-.254-6.105h.15c2.107-.076,4.732-.168,7.229-.168l.506,6.016-6.758.23-.869.033Zm9.328-.34-.506-6.014.059-.006c.857,0,1.7-.021,2.447-.037l.141-.006c.764-.021,1.557-.037,2.355-.037l.338,5.934h-.031c-1.611,0-3.234.086-4.8.172Zm6.533-.172-.34-5.842c1.826-.027,3.676-.043,5.664-.043,4.42,0,9.027.064,12.725.113l.609.01v5.682c-1.682-.018-3.467-.033-5.455-.033-4.23,0-8.758.055-12.4.107l-.807.012Zm115.012-3.643,3.055-4.83c1.816,1.268,3.445,2.42,5.008,3.645l-3.482,4.748C21370.313,18042.734,21368.814,18041.57,21367.311,18040.406Zm-234.014,3.471-2.8-4.322c1.213-.781,2.674-1.709,4.322-2.619l2.717,4.322-.113.064c-1.3.77-2.787,1.643-4.129,2.555v.01Zm5.768-3.562-2.717-4.23.227-.119c1.574-.824,3.363-1.762,5.207-2.684l2.625,4.246c-1.834.916-3.629,1.854-5.342,2.787v.01Zm226.807-.842c-1.525-1.039-3.131-2.068-4.92-3.131l2.969-4.668c1.779.977,3.465,2,5.008,3.051l-3.057,4.748v.006Zm-262.092-4.662.172-.166a108.983,108.983,0,0,1,12.85-11,112.255,112.255,0,0,1,14.633-9.021l2.629,3.9a112.474,112.474,0,0,0-14.379,8.98,105.054,105.054,0,0,0-12.6,10.951Zm39.527-2.2.215-.1.033-.016c1.756-.8,3.566-1.623,5.432-2.35l1.871,4.5c-1.482.588-3.121,1.309-5.008,2.2Zm251.318,2.959a98.8,98.8,0,0,0-15.523-12.461l3.736-5.174a110.319,110.319,0,0,1,16.621,14.336l-4.834,3.3v.01Zm-35.2-.082a55.445,55.445,0,0,0-5.008-2.537l2.463-4.754.152.07c1.777.809,3.609,1.643,5.361,2.646l-2.969,4.574v.006Zm-206.957-1.525-1.871-4.408.291-.107c1.9-.711,3.869-1.449,5.9-2.1l1.869,4.326c-1.982.631-4,1.381-6.191,2.285v.006Zm200.424-1.7a72.461,72.461,0,0,0-7.211-2.625l1.445-5.092a82.368,82.368,0,0,1,8.139,2.975l-2.373,4.742v.006Zm-192.625-1.1-1.865-4.332c2.7-.83,5.287-1.537,7.465-2.113l1.186,4.414c-2.416.625-4.7,1.3-6.785,2.031v.006Zm264.807-2.037-9.926-11.279,9.42-9.75,10.768,12.979-10.262,8.051v.006Zm-81,0a50.376,50.376,0,0,0-6.273-1.352l1.1-5.342.211.049.043.01c2.086.48,4.246.977,6.365,1.547l-1.445,5.088v.006Zm-175.406-.426-1.1-4.316.053-.016.033-.006c2.059-.5,4.188-1.008,6.359-1.424l.254,4.582-1.271.162q-2.159.516-4.328,1.023Zm167.1-1.266c-3.973-.512-7.83-.928-11.787-1.277l.168-5.762a105.3,105.3,0,0,1,13.145,1.7l-1.186,5.422v.006Zm-160.053-4.84c4.641-.852,8.8-1.488,12.721-1.945l.172,5.082c-3.045.313-6.236.717-8.807,1.051l-.215.027c-1.191.15-2.416.307-3.617.447Zm141.217,2.818-.162-.016c-.922-.092-1.838-.174-2.76-.26-.889-.086-1.777-.166-2.672-.248l.678-5.26c.7.043,1.391.086,2.086.135q.979.056,1.957.119c.641.049,1.283.086,1.924.129s1.283.08,1.924.119c.438,0,.9.031,1.271.049l.152,0c.365.021.748.039,1.121.039l-.254,5.68v.006C21320.422,18025.74,21318.676,18025.574,21316.924,18025.412Zm-126.541.15-.258-5.082c4.074-.436,8.1-.775,12.3-1.023l-.168,5.006-.205.018c-3.854.328-7.836.668-11.668,1.088Zm119.076-.775c-3.783-.312-8.068-.658-12.207-.916l.254-4.922c2.1.082,4.219.189,6.262.291l.119.006.592.027c1.914.1,3.9.193,5.838.27l-.68,5.254v.006Zm-105.424-.582.086-4.83c1.758-.086,3.643-.166,5.768-.252l.414-.018c1.088-.043,2.184-.08,3.271-.123,1.063-.037,2.123-.08,3.186-.119l-.254,4.5-.469.025-.08.006c-3.908.242-7.945.5-11.922.82Zm86.518-.723-.049-.006-.123-.01c-1.5-.1-3.057-.2-4.576-.275l-.086-4.668h.01c3.158.082,6.738.168,10.084.34l-.258,4.916v.006C21293.873,18023.693,21292.186,18023.59,21290.553,18023.482Zm-72.436-.215.34-4.484c.658-.021,1.32-.043,1.984-.055,1-.031,2.01-.049,3.018-.074.9-.027,1.8-.049,2.705-.07q1.157-.032,2.3-.061l.172,4.242c-1.379.064-2.791.135-4.187.205l-1.553.076c-1.045.047-2.08.1-3.115.145l-1.66.086Zm65.834-.082c-1.246-.053-2.512-.1-3.768-.145l-2.861-.1-.088-4.58c2.238,0,4.469.08,6.625.162h.107l.055,0,.086,4.662v.006Zm-14.945-.592-.076-4.408c1.057,0,2.119.016,3.3.043l.4,0c.955.018,1.945.039,2.91.039l.086,4.488v.006C21273.252,18022.674,21271.119,18022.594,21269.006,18022.594Zm-38.676.166-.172-4.236c1.428-.037,2.852-.059,4.307-.08l.135-.006c1.428-.016,2.91-.037,4.381-.08v4.154c-1.449.039-2.895.082-4.344.125l-2.123.064-2.184.064Zm30.365-.328.172-4.246h6.273l.086,4.326C21265.023,18022.432,21262.92,18022.432,21260.7,18022.432Zm-9.922,0,.086-4.246h8.311l-.086,4.24v.006Zm-10.1-.006v-4.154c2.8-.086,5.686-.086,8.484-.086l-.088,4.16h-.09c-1.418,0-2.912.021-4.113.043h-.232c-1.3.021-2.641.043-3.961.043Zm136.986-.34a122.924,122.924,0,0,0-19.344-9.836l2.119-6.277a96.078,96.078,0,0,1,21.035,10.859l-3.811,5.254v.006Zm58.945-2.037-10.941-13.225,7.379-7.719,12.385,14.078-8.822,6.865v.006Zm-300.936-2.377-2.717-3.814a127.146,127.146,0,0,1,15.533-6.484,146.28,146.28,0,0,1,17.123-4.705l1.186,4.064a144.289,144.289,0,0,0-16.293,4.645,126.571,126.571,0,0,0-14.832,6.295v.006Zm311.115-5.68-12.471-14.078,6.785-7.125,13.744,14.93-8.059,6.273v.006Zm-90.08-.254a159.057,159.057,0,0,0-18.492-5.594l1.273-5.26,1.357.172a96.507,96.507,0,0,1,17.984,4.49l-2.123,6.191v.006Zm-188.3-5.346-1.1-4.15a195,195,0,0,1,29.346-3.648l.086,4.074a181.624,181.624,0,0,0-28.332,3.73Zm153.186-3.3-.873-.074h-.053c-4.092-.318-7.949-.621-11.965-.857l-.254-4.328c9.334.643,19.176,1.559,29.26,2.717l-1.186,5.168v.006C21331.961,18004.678,21327.078,18003.816,21321.6,18003.088Zm-123.074-.6-.086-4.068,1.277-.082c9.3-.684,16.9-1.143,23.918-1.443l.254,4.662c-4.5.166-8.834.4-13.414.668l-.113.01-.131.006c-4.014,0-7.953.082-11.705.254Zm82.7-1.434-.168-4.5c8.586.248,17.236.68,25.7,1.271l.254,4.322v.006C21299.182,18001.693,21290.746,18001.332,21281.219,18001.057Zm-55.895-4.16c10.018-.389,18.238-.6,25.869-.674l.512,4.576c-7.783.074-16.33.295-26.123.678Zm35.166,3.869c-2.389,0-4.742.012-7.006.033l-.508-4.576c2.361-.021,4.609-.033,6.684-.033,6.619,0,13.273.1,19.779.287l.086,4.488v.006C21272.492,18000.83,21266.268,18000.766,21260.49,18000.766Z" transform="translate(-20937 -17853.998)" fill="#c3c4cc"></path>
			  <path class="silverClub409410 st0" d="M21059.682,18255.406c-5.9-14.855-7.854-23.7-7.7-24.094.338-.254,12.369-2.686,12.363-2.676.688,6.32,6.807,21.688,6.807,21.688l-10.2,4.785s-1.178.3-1.266.3ZM21049,18003.869s3.5-16.271,7.594-22.871c.074-.074,11.654,5.389,11.645,5.51-1.387,2.4-5.314,12.9-5.828,20.275C21062.438,18006.771,21049,18003.869,21049,18003.869Z" transform="translate(-20888.25 -17756.75)" fill="#cd5fa6" style="fill: rgb(195, 196, 204); opacity: 1;"></path>
			  <path class="silverClub1 st0" d="M452.458,3569.6c.016-.083,11.41-5.811,11.41-5.811s2.313,3.335,5.064,11.153c.027.092-12.116,4.721-12.116,4.721S456.409,3575.967,452.458,3569.6Z" transform="translate(-26 -3335)" fill="#609839" style="fill: rgb(195, 196, 204); opacity: 1;"></path>
			  <path class="silverClub2 st0" d="M459.818,242.781l6.375-2.291,2.764,10.268-6.67,1.773Z" transform="translate(-2 -7)" fill="#0a4a27" style="opacity: 1;"></path>
			  <path class="silverClub127129 st0" d="M403.334,258.473l7.641-1.951a129.412,129.412,0,0,1,3.641,15.16c.047.063-7.562,1.873-7.562,1.873Z" fill="#0a7139" style="opacity: 1;"></path>
			  <path class="silverClub130132 vip130132 st0" d="M405.473,416.977l-.906,12.742h8.4V417.277Z" fill="#93c145" style="opacity: 1;"></path>
			  <path class="silverClub227 st0" d="M415.135,232.771s3.834,4.314,8.277,15.479,4.867,17.547,4.867,17.547L417.3,268.852s-1.818-8.844-3.926-15.24a92.719,92.719,0,0,0-6.154-13.619Z" fill="#18b0e0" style="opacity: 1;"></path>
			</g>
		</svg>